<svg xmlns="http://www.w3.org/2000/svg" viewBox="0 0 209.2 209.2"><defs><style>.cls-1{fill:#fff;}</style></defs><g id="Layer_2" data-name="Layer 2"><g id="Layer_1-2" data-name="Layer 1"><path class="cls-1" d="M209.2,110.33V98.64h0V64.49L206.93,59,182.62,34.69h0l-8.27-8.27h0L150.2,2.27,144.72,0H64.49L59,2.27,34.69,26.58h0l-8.27,8.27h0L2.27,59,0,64.49V98.87H0v11.69H0v34.16l2.27,5.48,24.31,24.31h0l8.27,8.27h0L59,206.93l5.49,2.27h80.23l5.48-2.27,24.31-24.31h0l8.27-8.27h0l24.15-24.15,2.27-5.48V110.33Zm-20.63,0h-.34c-.88,5.89-3.42,10.16-7.5,13.09a101.66,101.66,0,0,0-8.4-9.45,99.55,99.55,0,0,0-10.7-9.37,99.55,99.55,0,0,0,10.7-9.37,101.51,101.51,0,0,0,8.45-9.52c4.06,2.89,6.57,7.1,7.45,12.93h.34Zm-61.16,49.34-.63-.64c-8-8-12.92-15.42-9.64-24.17,8.5,3.87,10.27,12.55,10.27,23.91Zm-45-.64-.64.64v-.9c0-11.36,1.78-20,10.28-23.91C95.34,143.61,90.46,151,82.43,159ZM81.79,49.54l.64.63c8,8,12.91,15.42,9.64,24.17-8.5-3.87-10.28-12.55-10.28-23.91Zm45,.63.63-.63v.89c0,11.36-1.77,20-10.27,23.91C113.86,65.59,118.74,58.2,126.78,50.17Zm-22.06,58.51c-.62,0-1.22,0-1.82,0-.36-.39-.72-.77-1.1-1.15s-.87-.85-1.31-1.26c0-.53,0-1,0-1.59s0-1.22,0-1.82l1.15-1.1c.43-.44.84-.87,1.25-1.31.53,0,1.06,0,1.6,0s1.21,0,1.81,0l1.11,1.15c.43.43.87.84,1.3,1.25,0,.53,0,1.06,0,1.6s0,1.21,0,1.81c-.39.37-.77.73-1.15,1.11s-.85.87-1.26,1.3C105.78,108.7,105.26,108.68,104.72,108.68Zm30.14-16.61c3.87-8.5,12.55-10.28,23.91-10.28h.9l-.64.64C151,90.46,143.61,95.34,134.86,92.07ZM50.17,82.43l-.63-.64h.89c11.36,0,20,1.78,23.91,10.28C65.59,95.34,58.2,90.46,50.17,82.43Zm24.17,34.71c-3.87,8.5-12.55,10.27-23.91,10.27h-.89l.63-.63C58.2,118.74,65.59,113.86,74.34,117.14Zm84.7,9.64.63.63h-.9c-11.36,0-20-1.77-23.91-10.27C143.61,113.86,151,118.74,159,126.78Zm9-77.5-.24.24c3.54,4.79,4.77,9.6,4,14.56a108.53,108.53,0,0,0-26.83.19,99.62,99.62,0,0,0,1-14.18,100.6,100.6,0,0,0-.76-12.72c4.91-.83,9.67.38,14.41,3.88l.24-.24Zm-57.7-28.65V21c5.89.87,10.16,3.42,13.09,7.49A103.31,103.31,0,0,0,114,36.88a100.47,100.47,0,0,0-9.37,10.69,100.47,100.47,0,0,0-9.37-10.69,100.27,100.27,0,0,0-9.52-8.46c2.89-4.05,7.1-6.57,12.93-7.44v-.35Zm-61,20.54.24.25c4.79-3.55,9.6-4.78,14.56-4a101.29,101.29,0,0,0-.74,12.63,101.41,101.41,0,0,0,.93,14.19,99.7,99.7,0,0,0-14.18-.94,102.58,102.58,0,0,0-12.72.75c-.83-4.9.38-9.66,3.88-14.41L41,49.44ZM20.63,98.87H21c.87-5.89,3.42-10.15,7.49-13.08a104.59,104.59,0,0,0,8.41,9.44,101.77,101.77,0,0,0,10.69,9.38,107.74,107.74,0,0,0-19.15,18.88c-4.05-2.88-6.57-7.1-7.44-12.93h-.35Zm20.54,61.06.25-.25c-3.55-4.78-4.78-9.6-4-14.55a103.24,103.24,0,0,0,12.63.74,99.84,99.84,0,0,0,14.19-.94,99.84,99.84,0,0,0-.94,14.19,102.82,102.82,0,0,0,.75,12.72c-4.9.82-9.66-.39-14.41-3.89l-.24.24Zm57.7,28.64v-.34c-5.89-.88-10.15-3.42-13.08-7.5a102.9,102.9,0,0,0,9.44-8.4,100.82,100.82,0,0,0,9.38-10.7,100.51,100.51,0,0,0,9.36,10.7,102.79,102.79,0,0,0,9.52,8.45c-2.88,4.06-7.1,6.57-12.93,7.45v.34ZM159.93,168l-.25-.24c-4.78,3.54-9.6,4.77-14.55,4a103.36,103.36,0,0,0,.74-12.63,100.09,100.09,0,0,0-.94-14.2,99.77,99.77,0,0,0,14.19,1,100.71,100.71,0,0,0,12.72-.76c.82,4.91-.39,9.67-3.89,14.41l.24.24Z"/></g></g></svg>